<?xml version="1.0" standalone="no"?>
<!DOCTYPE svg PUBLIC "-//W3C//DTD SVG 20010904//EN"
 "http://www.w3.org/TR/2001/REC-SVG-20010904/DTD/svg10.dtd">
<svg version="1.0" xmlns="http://www.w3.org/2000/svg"
 width="490.000000pt" height="413.000000pt" viewBox="0 0 490.000000 413.000000"
 preserveAspectRatio="xMidYMid meet">
<metadata>
Created by potrace 1.16, written by Peter Selinger 2001-2019
</metadata>
<g transform="translate(0.000000,413.000000) scale(0.100000,-0.100000)"
fill="#000000" stroke="none">
<path d="M2524 3743 c-37 -7 -102 -71 -168 -166 -99 -144 -120 -188 -111 -245
12 -84 29 -107 96 -133 55 -20 72 -21 177 -16 67 4 143 2 177 -4 49 -8 67 -7
98 6 20 8 37 20 37 26 0 7 9 9 22 6 13 -4 32 2 49 14 33 23 65 25 73 3 5 -14
10 -13 30 9 13 14 26 32 29 39 4 11 7 11 15 0 5 -7 16 -10 25 -6 13 4 17 1 17
-15 0 -35 20 -24 41 24 21 48 30 53 49 30 7 -8 20 -15 29 -15 26 0 21 59 -6
73 -12 7 -36 29 -53 49 -17 20 -48 42 -68 49 -89 28 -183 76 -252 129 -79 60
-112 80 -176 103 -22 8 -55 21 -74 29 -19 8 -45 13 -56 11z m15 -132 c12 -7 9
-20 -13 -75 -49 -123 -30 -214 53 -252 24 -12 41 -26 41 -36 0 -10 6 -18 13
-19 6 0 3 -4 -8 -8 -26 -11 -166 7 -185 24 -28 24 -79 45 -109 45 -16 0 -33 5
-37 12 -14 22 -8 100 8 112 8 6 22 25 31 42 24 46 108 135 142 150 36 16 46
17 64 5z"/>
<path d="M3814 3350 c2 -17 -1 -33 -5 -36 -5 -3 -6 -16 -3 -30 5 -18 2 -24 -9
-24 -9 0 -17 -10 -19 -22 -2 -19 -8 -22 -31 -20 -25 3 -28 0 -22 -17 4 -12 2
-21 -4 -21 -6 0 -11 6 -11 14 0 8 -5 16 -11 18 -6 2 -11 16 -11 31 0 15 -4 27
-7 27 -11 0 -7 -94 4 -102 23 -17 -8 -20 -36 -4 -33 19 -59 16 -59 -8 0 -25
-41 -96 -55 -96 -7 0 -16 -7 -19 -15 -4 -12 -10 -13 -24 -6 -14 7 -22 5 -35
-9 -12 -14 -13 -21 -5 -26 7 -4 14 -2 16 4 7 23 21 12 28 -23 8 -45 33 -67 41
-36 l6 22 14 -21 c11 -15 18 -18 27 -11 9 7 16 7 24 -1 8 -8 14 -5 21 15 13
35 23 34 19 0 -2 -19 2 -28 15 -31 13 -3 17 4 18 30 1 18 3 25 6 16 6 -26 20
-22 37 10 17 30 21 17 6 -22 -5 -14 -5 -28 -1 -31 5 -3 12 3 16 13 6 15 8 14
20 -8 l13 -25 7 28 c7 26 25 38 25 16 0 -6 7 -9 15 -5 10 3 15 -1 15 -12 0
-15 2 -15 10 -2 5 8 10 11 11 5 3 -36 40 135 43 200 4 70 1 87 -22 135 -14 30
-36 68 -48 83 l-24 28 4 -31z"/>
<path d="M2035 2940 c-3 -5 -3 -21 1 -35 4 -15 2 -25 -5 -25 -6 0 -11 -7 -11
-15 0 -8 -4 -15 -9 -15 -5 0 -11 -13 -13 -30 -3 -17 0 -30 6 -30 6 0 5 -4 -3
-9 -9 -6 -11 -15 -6 -27 12 -26 14 -84 3 -90 -4 -3 -6 -10 -3 -15 4 -5 -10
-18 -29 -30 -40 -23 -54 -66 -37 -112 14 -35 14 -37 0 -37 -7 0 -22 11 -35 25
-30 33 -38 32 -70 -10 -14 -19 -35 -35 -46 -35 -11 0 -49 -28 -85 -62 -49 -47
-74 -81 -98 -135 -53 -114 -89 -160 -145 -184 -27 -11 -56 -29 -65 -39 -16
-18 -45 -120 -60 -208 -5 -33 -20 -58 -62 -105 -55 -62 -97 -130 -86 -140 3
-3 8 -21 12 -39 5 -24 3 -36 -7 -44 -10 -7 -16 -32 -17 -75 -1 -35 -5 -74 -9
-87 -6 -17 0 -32 22 -60 52 -67 99 -138 107 -161 8 -26 79 -116 133 -167 43
-41 105 -72 153 -78 26 -2 36 -9 43 -30 6 -14 17 -26 27 -26 10 0 21 -5 25
-12 5 -8 0 -9 -14 -6 -25 7 -28 -6 -11 -49 6 -15 13 -40 15 -55 3 -25 0 -28
-26 -28 -67 0 -179 33 -275 81 -55 28 -107 56 -115 62 -8 7 -25 18 -38 25 -35
20 -29 -13 11 -49 23 -21 38 -28 55 -24 12 3 22 1 22 -5 0 -5 -18 -10 -41 -10
-37 0 -40 -2 -33 -22 3 -13 8 -25 10 -27 2 -2 39 1 81 7 42 6 81 8 85 5 5 -2
-9 -18 -31 -33 -48 -35 -61 -68 -35 -87 26 -19 39 -16 52 12 16 36 70 65 117
65 l40 -1 -35 -18 c-45 -24 -77 -59 -85 -93 -6 -24 -3 -29 20 -38 33 -13 48
-2 76 52 22 43 49 63 99 72 l35 7 -27 -16 c-15 -8 -32 -24 -38 -35 -14 -27
-13 -107 3 -113 21 -8 45 12 52 43 4 16 18 46 31 66 18 26 24 48 23 73 -2 27
0 35 11 32 8 -2 40 -11 71 -19 55 -15 57 -15 79 6 28 25 50 29 50 7 0 -8 6
-15 14 -15 18 0 76 -57 76 -75 0 -8 16 -31 36 -52 19 -21 53 -63 73 -93 21
-30 58 -71 82 -90 79 -63 80 -63 66 -72 -9 -6 -8 -8 4 -8 9 0 16 -7 16 -15 0
-21 -41 -19 -75 2 -49 32 -116 85 -128 102 -7 9 -15 13 -19 9 -9 -8 20 -88 51
-143 28 -48 54 -145 54 -197 l0 -38 538 0 538 0 31 53 c53 87 66 126 65 201
-2 96 -24 155 -77 208 -77 76 -109 103 -160 138 -27 18 -52 35 -54 36 -2 2 15
24 38 49 22 24 41 50 41 57 1 7 10 -9 20 -37 34 -87 79 -153 122 -176 25 -14
48 0 48 30 0 14 3 43 6 64 l7 37 14 -27 c22 -42 79 -192 93 -241 11 -42 40
-82 59 -82 5 0 17 7 25 16 18 18 23 148 6 159 -5 3 -10 17 -10 31 0 14 -9 42
-20 62 -16 31 -23 48 -35 82 -1 3 -5 12 -8 20 -4 8 -9 26 -11 40 -3 14 -5 26
-7 28 -1 1 -3 7 -4 12 -1 6 -4 12 -5 15 -1 3 -3 8 -5 13 -4 15 -18 49 -41 100
-18 40 -22 58 -14 72 5 10 10 42 10 70 0 49 -3 55 -54 108 -65 70 -72 83 -81
152 -3 30 -12 73 -18 95 -6 22 -12 110 -13 195 -1 85 -4 166 -7 180 -17 70
-28 145 -36 235 -12 125 -23 175 -50 221 -12 19 -19 40 -15 45 9 16 326 253
354 266 8 4 58 39 110 78 52 39 118 86 145 105 28 18 63 45 78 59 34 31 72
104 57 109 -6 2 -16 9 -23 15 -15 15 -176 14 -269 -2 -36 -6 -124 -16 -195
-21 -70 -6 -153 -12 -183 -15 -185 -17 -344 -27 -480 -31 -85 -2 -171 -6 -190
-9 -21 -3 -47 2 -64 10 -32 17 -49 20 -26 5 22 -14 -13 -13 -75 3 -27 7 -57
12 -65 12 -8 -1 -27 4 -41 11 -14 7 -49 16 -78 20 -47 6 -53 10 -66 40 -14 34
-28 43 -40 24z m-175 -903 c51 -23 117 -72 182 -136 38 -35 66 -67 63 -69 -4
-5 -85 56 -117 89 -25 26 -96 66 -147 84 -42 14 -49 14 -138 -10 -52 -14 -97
-25 -101 -25 -18 0 40 39 81 55 26 10 50 22 53 27 7 11 89 1 124 -15z m-114
-167 c-16 -5 -16 -7 -3 -19 12 -9 21 -10 36 -2 11 6 22 11 25 11 11 0 45 -43
40 -52 -3 -4 5 -8 17 -8 21 0 21 -1 6 -18 -21 -23 -21 -32 -3 -32 8 0 18 -4
21 -10 4 -6 -1 -7 -12 -4 -10 3 -5 -3 11 -14 33 -23 53 -52 36 -52 -7 0 -6 -8
3 -21 20 -28 8 -71 -25 -86 -14 -7 -31 -26 -38 -43 -12 -29 -30 -41 -30 -20 0
6 -7 10 -16 10 -10 0 -14 -6 -11 -14 9 -23 -2 -25 -40 -10 -58 25 -28 -1 41
-35 57 -28 106 -70 106 -91 0 -4 -33 1 -72 11 -95 24 -181 24 -234 0 -23 -10
-45 -24 -48 -30 -4 -6 -12 -11 -18 -11 -14 0 -2 73 19 113 10 21 17 63 18 122
3 83 5 95 33 135 22 33 28 48 20 57 -8 10 -4 13 18 13 22 0 25 3 14 10 -12 8
-12 10 2 15 9 4 14 13 11 21 -3 8 0 14 7 14 6 0 23 14 37 30 13 17 30 27 36
23 7 -4 4 -9 -7 -13z m50 -692 c18 -28 -163 -127 -207 -113 -41 13 -15 56 53
85 87 38 142 48 154 28z"/>
<path d="M1101 791 c13 -82 100 -234 174 -301 15 -14 57 -63 93 -110 66 -84
280 -328 320 -363 29 -27 34 -9 22 85 -5 45 -10 131 -10 190 0 121 -11 160
-44 152 -28 -7 -137 -9 -158 -3 -10 3 -21 8 -24 12 -4 4 -13 7 -20 7 -14 0
-111 61 -153 95 -67 55 -134 146 -171 233 -12 29 -26 52 -30 52 -4 0 -4 -22 1
-49z"/>
<path d="M1898 312 c4 -96 2 -109 -16 -125 -41 -37 -74 15 -87 138 -4 39 -10
74 -13 80 -17 28 -50 -302 -38 -369 l7 -37 153 3 152 2 -13 40 c-8 21 -18 69
-22 107 -5 37 -20 89 -34 116 -14 26 -35 72 -48 101 -35 81 -45 68 -41 -56z"/>
</g>
</svg>
